<mxfile host="Electron" modified="2023-11-07T18:57:23.624Z" agent="Mozilla/5.0 (Windows NT 10.0; Win64; x64) AppleWebKit/537.36 (KHTML, like Gecko) draw.io/22.0.3 Chrome/114.0.5735.289 Electron/25.8.4 Safari/537.36" etag="KDWdDNcQpbf9eZvBp9t3" version="22.0.3" type="device">
  <diagram id="C5RBs43oDa-KdzZeNtuy" name="Page-1">
    <mxGraphModel dx="1501" dy="661" grid="1" gridSize="10" guides="1" tooltips="1" connect="1" arrows="1" fold="1" page="1" pageScale="1" pageWidth="827" pageHeight="1169" math="0" shadow="0">
      <root>
        <mxCell id="WIyWlLk6GJQsqaUBKTNV-0" />
        <mxCell id="WIyWlLk6GJQsqaUBKTNV-1" parent="WIyWlLk6GJQsqaUBKTNV-0" />
        <mxCell id="EEsgxBTG1dsr8DoBc5G6-2" value="start" style="rounded=1;whiteSpace=wrap;html=1;absoluteArcSize=1;arcSize=14;strokeWidth=2;" vertex="1" parent="WIyWlLk6GJQsqaUBKTNV-1">
          <mxGeometry x="200" y="10" width="100" height="100" as="geometry" />
        </mxCell>
        <mxCell id="EEsgxBTG1dsr8DoBc5G6-7" value="espresso" style="edgeStyle=orthogonalEdgeStyle;rounded=0;orthogonalLoop=1;jettySize=auto;html=1;" edge="1" parent="WIyWlLk6GJQsqaUBKTNV-1" source="EEsgxBTG1dsr8DoBc5G6-3" target="EEsgxBTG1dsr8DoBc5G6-6">
          <mxGeometry relative="1" as="geometry" />
        </mxCell>
        <mxCell id="EEsgxBTG1dsr8DoBc5G6-9" value="cappuccino" style="edgeStyle=orthogonalEdgeStyle;rounded=0;orthogonalLoop=1;jettySize=auto;html=1;" edge="1" parent="WIyWlLk6GJQsqaUBKTNV-1" source="EEsgxBTG1dsr8DoBc5G6-3" target="EEsgxBTG1dsr8DoBc5G6-8">
          <mxGeometry relative="1" as="geometry" />
        </mxCell>
        <mxCell id="EEsgxBTG1dsr8DoBc5G6-11" value="latte" style="edgeStyle=orthogonalEdgeStyle;rounded=0;orthogonalLoop=1;jettySize=auto;html=1;" edge="1" parent="WIyWlLk6GJQsqaUBKTNV-1" source="EEsgxBTG1dsr8DoBc5G6-3" target="EEsgxBTG1dsr8DoBc5G6-10">
          <mxGeometry relative="1" as="geometry">
            <mxPoint as="offset" />
          </mxGeometry>
        </mxCell>
        <mxCell id="EEsgxBTG1dsr8DoBc5G6-3" value="ask for an order" style="strokeWidth=2;html=1;shape=mxgraph.flowchart.decision;whiteSpace=wrap;" vertex="1" parent="WIyWlLk6GJQsqaUBKTNV-1">
          <mxGeometry x="200" y="150" width="100" height="100" as="geometry" />
        </mxCell>
        <mxCell id="EEsgxBTG1dsr8DoBc5G6-6" value="set price = 1.5&amp;nbsp;" style="rounded=1;whiteSpace=wrap;html=1;strokeWidth=2;" vertex="1" parent="WIyWlLk6GJQsqaUBKTNV-1">
          <mxGeometry x="-60" y="170" width="120" height="60" as="geometry" />
        </mxCell>
        <mxCell id="EEsgxBTG1dsr8DoBc5G6-8" value="price = 3" style="rounded=1;whiteSpace=wrap;html=1;strokeWidth=2;" vertex="1" parent="WIyWlLk6GJQsqaUBKTNV-1">
          <mxGeometry x="414" y="170" width="120" height="60" as="geometry" />
        </mxCell>
        <mxCell id="EEsgxBTG1dsr8DoBc5G6-10" value="set price = 2.5" style="rounded=1;whiteSpace=wrap;html=1;strokeWidth=2;" vertex="1" parent="WIyWlLk6GJQsqaUBKTNV-1">
          <mxGeometry x="190" y="350" width="120" height="60" as="geometry" />
        </mxCell>
      </root>
    </mxGraphModel>
  </diagram>
</mxfile>
